inDegrees=no
nColumns=24
nRows=18
DataType=double
version=3
OpenSimVersion=4.5
endheader
time	pelvis_tilt	pelvis_list	pelvis_rotation	pelvis_tz	pelvis_ty	pelvis_tx	hip_flexion_r	hip_adduction_r	hip_rotation_r	knee_angle_r	ankle_angle_r	subtalar_angle_r	mtp_angle_r	hip_flexion_l	hip_adduction_l	hip_rotation_l	knee_angle_l	ankle_angle_l	subtalar_angle_l	mtp_angle_l	lumbar_extension	lumbar_bending	lumbar_rotation
0.3100000000000001	0.006824783794439191	0.05001343604645242	-0.02864941142197014	-0.05887268000000004	0.91214671	0.29827604	0.3124573787483305	-0.1344937233682371	-0.1490099608130928	-1.074703474554184	0.03318228334018736	-0.2219064236153197	0	0.119257770259323	0.1027898869698643	-0.2634913129430925	-0.2295901796221557	0.123764302366824	-0.1304342671224783	0	-0.1481309969447593	-0.07186444629939709	-0.04984326584382946
0.3199999999999998	0.009039569521674404	0.04949088876404597	-0.023436878082812	-0.06061281999999998	0.91268523	0.30703643	0.3293318307274548	-0.1348419895087727	-0.1586847238534216	-1.059276311899068	0.04420169428747783	-0.226008937482791	0	0.09991567369622523	0.1050692970958786	-0.2631051858986921	-0.2184923960610679	0.1328656816382402	-0.116159939467799	0	-0.1492182140230395	-0.06880820635488219	-0.06190212176431208
0.3300000000000001	0.008548606484514601	0.04938578560834289	-0.02043317916268027	-0.06209933000000004	0.9130159400000001	0.31583922	0.3480075644218655	-0.1337544233646421	-0.1646254102860459	-1.038045829648237	0.04876255256047389	-0.228029714946401	0	0.08497058249968284	0.1072843539653121	-0.2688891911573051	-0.2098430113382918	0.13883465811271	-0.1151286680460268	0	-0.1467215915629622	-0.06688863617127229	-0.07054437367550109
0.3399999999999999	0.01120585807600092	0.04831463504111628	-0.01449889097920434	-0.06371572	0.91338145	0.3246621	0.361057597013346	-0.1319228738004017	-0.1734471808299756	-1.013501726191561	0.06053988844340616	-0.2339721940066999	0	0.06458507243373969	0.1090751359543515	-0.2651160689162396	-0.1977451719181696	0.1450423352404606	-0.09712802334296437	0	-0.1489361578203429	-0.06330444704346558	-0.08282285484773769
0.3500000000000001	0.01107773356054433	0.0480166512914308	-0.01208055012793786	-0.06507029	0.9133215	0.33319375	0.3777875491694403	-0.1297946727175949	-0.179372434363222	-0.9856226795396992	0.06522398005156241	-0.2352316312743877	0	0.05013664644084467	0.1105962212897923	-0.2700691745797239	-0.1906161616582299	0.1531401236629754	-0.09377129372632506	0	-0.1480516876127523	-0.06074386297869163	-0.09223822338944372
0.3599999999999999	0.01075083175879906	0.04746547628760519	-0.009327523352836858	-0.06632969000000002	0.91311946	0.34184005	0.3923508878148195	-0.1267443860911586	-0.1846650346660202	-0.9528515339866261	0.07097167740027911	-0.2354085114928982	0	0.03374585085378803	0.1126940759838288	-0.2684828413319278	-0.179725534367654	0.1608639035602182	-0.08783801447104624	0	-0.146547904947917	-0.05821693601774608	-0.1000040327349367
0.3700000000000001	0.01856563269029566	0.04371877320274476	-0.001685148630769383	-0.06779554000000002	0.91377014	0.35088377	0.392044737865398	-0.1228390342153034	-0.1994486476511023	-0.9115264784568489	0.07931507797991254	-0.2295696442527097	0	0.009755370548233435	0.1102399053416806	-0.2649100703226205	-0.172554931340843	0.1686015918117372	-0.07300139060059341	0	-0.154138690407092	-0.05210019089309027	-0.113338874087877
0.3799999999999999	0.01663223612870368	0.04536586139249622	-0.0006305949999509849	-0.06866088000000001	0.91313893	0.359648	0.4063233633933604	-0.1208260299245831	-0.2028605445074032	-0.8732858639016402	0.08403460169174647	-0.2283647949499048	0	-0.004578392025194526	0.1141728243440052	-0.2644354765526939	-0.1625585186056044	0.1759209614680003	-0.07210010815991715	0	-0.1507738919587878	-0.05286194769910484	-0.1199431467448814
0.3900000000000001	0.02101262978196508	0.04285414015263083	0.004992218011718872	-0.06993120999999999	0.91312322	0.36841033	0.4081224407578015	-0.116531995144171	-0.2141593505538798	-0.8274333216668298	0.09313519451780169	-0.2231839095073353	0	-0.02441127238142635	0.1130633775306411	-0.2571908932076811	-0.1552555840167756	0.1797390830095713	-0.06552588413851267	0	-0.1549399152161465	-0.04797527956439395	-0.1284403485307273
0.3999999999999999	0.01952183781244718	0.04479848775692952	0.006701854734939647	-0.07084779999999999	0.91225199	0.37710962	0.4190478690409977	-0.1152846772682761	-0.2186202812222834	-0.7839656372899841	0.09567525455776973	-0.2176305646937378	0	-0.03845924025689997	0.1168117825933729	-0.2562727716558487	-0.1462833001178782	0.1887081022701028	-0.06429922572497364	0	-0.1521339427454641	-0.04828656985752851	-0.1364655117086716
0.4100000000000001	0.01865440169299979	0.05076692648247789	0.007927941165269887	-0.07159234	0.9111993	0.38543945	0.4296939516178256	-0.1172411095038198	-0.2208011676865555	-0.740656733543707	0.09866708923489216	-0.2148149372361662	0	-0.04830285238318621	0.1238127356026327	-0.2570703324952045	-0.1468370527724303	0.1935234864457732	-0.06444829342372184	0	-0.1513008286765805	-0.05459502508881602	-0.1390802695716969
0.4199999999999999	0.02127120936296844	0.04332948910001243	0.01610019279347273	-0.07274485999999999	0.91087251	0.39459901	0.4263863325992777	-0.1091608834569032	-0.2404075249007636	-0.6846784231470804	0.103813639164153	-0.1860035004422383	0	-0.06630366201986299	0.1163008678235805	-0.2478674289919962	-0.1405632096891379	0.2027077573374861	-0.05711024368300749	0	-0.1523905850343894	-0.04407659694067651	-0.1504217672443419
0.4300000000000002	0.01957355549829523	0.05109527691397324	0.01684796981808912	-0.07328507000000004	0.90947793	0.40290497	0.4360954465118126	-0.1123773376454341	-0.240865053539396	-0.6391758220452887	0.1053180662045482	-0.1800403798964748	0	-0.07584178620011293	0.1249368636020658	-0.2494288265462361	-0.1398963891951209	0.2096260445720545	-0.05768531343997758	0	-0.1506284768850981	-0.05237516664407735	-0.1543431836542312
0.4399999999999999	0.01907023269350287	0.04612271012453345	0.02189220368762258	-0.0742013	0.9085125000000001	0.41192615	0.4356968794586358	-0.1062063166207657	-0.2601975755752832	-0.5822507916553052	0.1048262174115046	-0.132008983807839	0	-0.08934926557428378	0.1199398309683684	-0.2450277034243765	-0.1354543419420264	0.2223947112385575	-0.05307060722170143	0	-0.1486236286925053	-0.04484509473186105	-0.1614734128521203
0.4500000000000002	0.01649758813379893	0.05483955616455681	0.02217307489189749	-0.07458273000000001	0.90677925	0.42024269	0.4439653493882896	-0.109702242179371	-0.2605871339369929	-0.5340961318627803	0.1085637024727054	-0.1248950727403243	0	-0.09792044383860722	0.1293775393754341	-0.2457046953482082	-0.1350785629547611	0.2287737879019014	-0.0528792688702004	0	-0.1460518038346839	-0.05431408711857119	-0.1649500277388157
0.46	0.01729963090870609	0.05055677089004323	0.03018600468889154	-0.07561996000000001	0.9057928900000001	0.42919079	0.4387317323130296	-0.1058140535223141	-0.2887552739590952	-0.4742987796124682	0.1135178310736644	-0.05555055550423692	0	-0.1113718232691641	0.1240510573449328	-0.2397104749550362	-0.133510415339639	0.241793935046067	-0.04371944375812268	0	-0.1466360646700279	-0.04707533177699669	-0.1767879967090281
0.4699999999999998	0.01089882930759857	0.0510602336510307	0.03216874914080141	-0.07592518000000001	0.90389798	0.43802406	0.4445535396579115	-0.101294399331365	-0.3014492136555424	-0.4176321595299424	0.1151364529126225	-0.02198967255018014	0	-0.1168296364389561	0.1243654614799858	-0.2410272471613167	-0.1317481190438543	0.2505026450809146	-0.04259630640757302	0	-0.1384494009404089	-0.04730744154342308	-0.1778987451889484
0.48	0.007093317996344189	0.05073986515287567	0.03533817580653052	-0.07616738000000003	0.9022419300000001	0.44691865	0.4458435020360851	-0.09645800086790171	-0.3194560064554279	-0.360424621246052	0.1186840044378371	0.0249143946051744	0	-0.1243499643524915	0.1230287675620243	-0.2411091914168954	-0.1321247124017486	0.2607237419047441	-0.03757738664692398	0	-0.1333582077935664	-0.04651044619074491	-0.1815292689686712
